<?xml version="1.0" encoding="UTF-8"?>
<svg xmlns="http://www.w3.org/2000/svg" width="500" height="520" viewBox="0 0 500 520">
  <rect width="500" height="520" fill="#0a0a0a"/>
  <text x="250" y="16" font-family="monospace" font-size="11" fill="#444" text-anchor="middle">ATTACTTTAAAAATTTTTATTTTATAAAAGTAAAAAATATAATTTCAAATTCAAAAATTTTTATGTTAAAAAAATTTATTAATAAAAAGTTAATAATAAAAAAAAATATAATGATAATAAACATAAAAAATTAAAAAAATGAAAATAATTATATGCTTACCTAAAGGAAGAAATTTAAAAGAAAGTTTAATTTTTTTATTAAAAAAAAATTTAAAATTATTTGAATATAACAATAGAAAACTATATATAAA</text>
  <circle cx="250.0" cy="260.0" r="52.5" fill="none" stroke="#222" stroke-width="0.5"/>
  <circle cx="250.0" cy="260.0" r="105.0" fill="none" stroke="#222" stroke-width="0.5"/>
  <circle cx="250.0" cy="260.0" r="157.5" fill="none" stroke="#222" stroke-width="0.5"/>
  <circle cx="250.0" cy="260.0" r="210.0" fill="none" stroke="#222" stroke-width="0.5"/>
  <circle cx="250.0" cy="260.0" r="105.0" fill="none" stroke="#2a4a2a" stroke-width="1" stroke-dasharray="4,4"/>
  <text x="357.0" y="260.0" font-family="monospace" font-size="8" fill="#2a4a2a" text-anchor="start">σ=½</text>
  <line x1="250.00" y1="260.00" x2="250.00" y2="50.00" stroke="#1a1a1a" stroke-width="0.4"/>
  <circle cx="250.00" cy="258.59" r="2.5" fill="#4060c0" opacity="0.9"/>
  <text x="250.0" y="34.0" font-family="monospace" font-size="8" fill="#2a2a2a" text-anchor="middle" dominant-baseline="central">1212.0914</text>
  <line x1="250.00" y1="260.00" x2="330.36" y2="65.99" stroke="#1a1a1a" stroke-width="0.4"/>
  <circle cx="257.78" cy="241.22" r="2.5" fill="#4060c0" opacity="0.9"/>
  <text x="336.5" y="51.2" font-family="monospace" font-size="8" fill="#2a2a2a" text-anchor="middle" dominant-baseline="central">\text{ric}}^{…</text>
  <line x1="250.00" y1="260.00" x2="398.49" y2="111.51" stroke="#1a1a1a" stroke-width="0.4"/>
  <circle cx="254.92" cy="255.08" r="2.5" fill="#4060c0" opacity="0.9"/>
  <text x="409.8" y="100.2" font-family="monospace" font-size="8" fill="#2a2a2a" text-anchor="middle" dominant-baseline="central">^{*}(x)=\bigo…</text>
  <line x1="250.00" y1="260.00" x2="444.01" y2="179.64" stroke="#1a1a1a" stroke-width="0.4"/>
  <circle cx="253.20" cy="258.67" r="2.5" fill="#4060c0" opacity="0.9"/>
  <text x="458.8" y="173.5" font-family="monospace" font-size="8" fill="#2a2a2a" text-anchor="middle" dominant-baseline="central">10.2307/19707…</text>
  <line x1="250.00" y1="260.00" x2="460.00" y2="260.00" stroke="#1a1a1a" stroke-width="0.4"/>
  <circle cx="262.05" cy="260.00" r="2.5" fill="#c04040" opacity="0.9"/>
  <text x="476.0" y="260.0" font-family="monospace" font-size="8" fill="#2a2a2a" text-anchor="middle" dominant-baseline="central">_{j}\right)}{…</text>
  <line x1="250.00" y1="260.00" x2="444.01" y2="340.36" stroke="#1a1a1a" stroke-width="0.4"/>
  <circle cx="263.78" cy="265.71" r="2.5" fill="#c04040" opacity="0.9"/>
  <text x="458.8" y="346.5" font-family="monospace" font-size="8" fill="#2a2a2a" text-anchor="middle" dominant-baseline="central">&amp;=e_{12}(\tau</text>
  <line x1="250.00" y1="260.00" x2="398.49" y2="408.49" stroke="#1a1a1a" stroke-width="0.4"/>
  <circle cx="266.71" cy="276.71" r="2.5" fill="#c04040" opacity="0.9"/>
  <text x="409.8" y="419.8" font-family="monospace" font-size="8" fill="#2a2a2a" text-anchor="middle" dominant-baseline="central">nichtassoziat…</text>
  <line x1="250.00" y1="260.00" x2="330.36" y2="454.01" stroke="#1a1a1a" stroke-width="0.4"/>
  <circle cx="265.00" cy="296.21" r="2.5" fill="#c04040" opacity="0.9"/>
  <text x="336.5" y="468.8" font-family="monospace" font-size="8" fill="#2a2a2a" text-anchor="middle" dominant-baseline="central">l^{2}([a,b</text>
  <line x1="250.00" y1="260.00" x2="250.00" y2="470.00" stroke="#1a1a1a" stroke-width="0.4"/>
  <circle cx="250.00" cy="301.18" r="2.5" fill="#c04040" opacity="0.9"/>
  <text x="250.0" y="486.0" font-family="monospace" font-size="8" fill="#2a2a2a" text-anchor="middle" dominant-baseline="central">krook</text>
  <line x1="250.00" y1="260.00" x2="169.64" y2="454.01" stroke="#1a1a1a" stroke-width="0.4"/>
  <circle cx="234.13" cy="298.31" r="2.5" fill="#c04040" opacity="0.9"/>
  <text x="163.5" y="468.8" font-family="monospace" font-size="8" fill="#2a2a2a" text-anchor="middle" dominant-baseline="central">f(a)={\frac</text>
  <line x1="250.00" y1="260.00" x2="101.51" y2="408.49" stroke="#333" stroke-width="0.8"/>
  <circle cx="201.77" cy="308.23" r="4.0" fill="#c04040" opacity="0.9"/>
  <text x="90.2" y="419.8" font-family="monospace" font-size="10" fill="#40a060" font-weight="bold" text-anchor="middle" dominant-baseline="central">india</text>
  <Mathematics x="201.77" y="308.23">india</Mathematics>
  <line x1="250.00" y1="260.00" x2="55.99" y2="340.36" stroke="#333" stroke-width="0.8"/>
  <circle cx="185.41" cy="286.76" r="4.0" fill="#c04040" opacity="0.9"/>
  <text x="41.2" y="346.5" font-family="monospace" font-size="10" fill="#40a060" font-weight="bold" text-anchor="middle" dominant-baseline="central">^{*}\times</text>
  <Mathematics x="185.41" y="286.76">^{*}\times</Mathematics>
  <line x1="250.00" y1="260.00" x2="40.00" y2="260.00" stroke="#333" stroke-width="0.8"/>
  <circle cx="155.56" cy="260.00" r="4.0" fill="#c04040" opacity="0.9"/>
  <text x="24.0" y="260.0" font-family="monospace" font-size="10" fill="#40a060" font-weight="bold" text-anchor="middle" dominant-baseline="central">crucially</text>
  <Mathematics x="155.56" y="260.00">crucially</Mathematics>
  <line x1="250.00" y1="260.00" x2="55.99" y2="179.64" stroke="#1a1a1a" stroke-width="0.4"/>
  <circle cx="200.78" cy="239.61" r="2.5" fill="#c04040" opacity="0.9"/>
  <text x="41.2" y="173.5" font-family="monospace" font-size="8" fill="#2a2a2a" text-anchor="middle" dominant-baseline="central">f(n)\lambda</text>
  <line x1="250.00" y1="260.00" x2="101.51" y2="111.51" stroke="#333" stroke-width="0.8"/>
  <circle cx="188.93" cy="198.93" r="4.0" fill="#c04040" opacity="0.9"/>
  <text x="90.2" y="100.2" font-family="monospace" font-size="10" fill="#40a060" font-weight="bold" text-anchor="middle" dominant-baseline="central">jacqueline</text>
  <Mathematics x="188.93" y="198.93">jacqueline</Mathematics>
  <line x1="250.00" y1="260.00" x2="169.64" y2="65.99" stroke="#333" stroke-width="0.8"/>
  <circle cx="213.71" cy="172.40" r="4.0" fill="#c04040" opacity="0.9"/>
  <text x="163.5" y="51.2" font-family="monospace" font-size="10" fill="#40a060" font-weight="bold" text-anchor="middle" dominant-baseline="central">priest</text>
  <Mathematics x="213.71" y="172.40">priest</Mathematics>
  <polyline fill="none" stroke="#40a060" stroke-width="1.2" opacity="0.8" points="250.00,260.00 250.00,258.59 253.20,258.67 254.92,255.08 262.05,260.00 263.78,265.71 257.78,241.22 266.71,276.71 265.00,296.21 250.00,301.18 234.13,298.31 200.78,239.61 201.77,308.23 185.41,286.76 188.93,198.93 155.56,260.00 213.71,172.40"/>
  <circle cx="250.0" cy="260.0" r="3" fill="#806020" opacity="0.9"/>
  <text x="250.0" y="272.0" font-family="monospace" font-size="8" fill="#806020" text-anchor="middle">ZD</text>
  <text x="254.7" y="248.7" font-family="monospace" font-size="7" fill="#555" text-anchor="middle" dominant-baseline="central">e1</text>
  <text x="257.2" y="260.0" font-family="monospace" font-size="7" fill="#555" text-anchor="middle" dominant-baseline="central">e4</text>
  <text x="258.3" y="263.4" font-family="monospace" font-size="7" fill="#555" text-anchor="middle" dominant-baseline="central">e5</text>
  <text x="260.0" y="270.0" font-family="monospace" font-size="7" fill="#555" text-anchor="middle" dominant-baseline="central">e6</text>
  <text x="259.0" y="281.7" font-family="monospace" font-size="7" fill="#555" text-anchor="middle" dominant-baseline="central">e7</text>
  <text x="250.0" y="284.7" font-family="monospace" font-size="7" fill="#555" text-anchor="middle" dominant-baseline="central">e8</text>
  <text x="240.5" y="283.0" font-family="monospace" font-size="7" fill="#555" text-anchor="middle" dominant-baseline="central">e9</text>
  <text x="221.1" y="288.9" font-family="monospace" font-size="7" fill="#555" text-anchor="middle" dominant-baseline="central">e10</text>
  <text x="211.2" y="276.1" font-family="monospace" font-size="7" fill="#555" text-anchor="middle" dominant-baseline="central">e11</text>
  <text x="193.3" y="260.0" font-family="monospace" font-size="7" fill="#555" text-anchor="middle" dominant-baseline="central">e12</text>
  <text x="220.5" y="247.8" font-family="monospace" font-size="7" fill="#555" text-anchor="middle" dominant-baseline="central">e13</text>
  <text x="213.4" y="223.4" font-family="monospace" font-size="7" fill="#555" text-anchor="middle" dominant-baseline="central">e14</text>
  <text x="228.2" y="207.4" font-family="monospace" font-size="7" fill="#555" text-anchor="middle" dominant-baseline="central">e15</text>
</svg>
